<?xml version="1.0" standalone="no"?>
<!DOCTYPE svg PUBLIC "-//W3C//DTD SVG 20010904//EN"
 "http://www.w3.org/TR/2001/REC-SVG-20010904/DTD/svg10.dtd">
<svg version="1.0" xmlns="http://www.w3.org/2000/svg"
 width="1200.000000pt" height="1200.000000pt" viewBox="0 0 1200.000000 1200.000000"
 preserveAspectRatio="xMidYMid meet">

<g transform="translate(0.000000,1200.000000) scale(0.100000,-0.100000)"
fill="#000000" stroke="none">
<path d="M0 6000 l0 -6000 6000 0 6000 0 0 6000 0 6000 -6000 0 -6000 0 0
-6000z m7479 3228 c-6 -13 -34 -60 -61 -106 l-50 -84 -17 29 c-10 15 -36 63
-60 106 l-42 77 121 0 121 0 -12 -22z m-4109 -293 c155 -58 290 -105 300 -105
11 0 22 -5 26 -11 3 -6 15 -8 26 -6 11 3 38 -1 60 -9 22 -8 51 -14 64 -14 14
0 38 -14 57 -34 33 -34 213 -107 895 -365 118 -45 218 -83 223 -87 5 -3 -13
-34 -40 -70 -28 -36 -51 -70 -53 -76 -2 -6 -160 49 -376 131 -465 177 -612
231 -628 231 -7 0 -21 -11 -32 -25 -11 -14 -27 -25 -36 -25 -11 0 -16 -9 -16
-32 0 -32 0 -32 -16 -10 -12 18 -25 22 -67 22 -95 1 -106 2 -111 16 -3 7 -21
16 -41 20 -30 5 -34 9 -23 21 8 11 9 16 0 21 -6 4 -16 19 -21 32 -6 14 -15 32
-20 40 -5 8 -16 31 -25 51 -14 32 -25 40 -101 69 -48 17 -88 30 -90 28 -4 -4
92 -583 270 -1626 132 -767 128 -673 27 -810 -52 -72 -56 -74 -63 -51 -5 13
-33 175 -64 359 -31 184 -99 585 -151 890 -91 530 -234 1366 -252 1478 -5 28
-8 52 -6 52 2 0 130 -47 284 -105z m4366 -202 l93 -168 -196 -3 c-108 -1 -198
-1 -200 1 -2 3 42 82 98 176 56 95 104 169 107 167 3 -3 47 -81 98 -173z
m-4306 -223 c19 -19 64 -100 58 -105 -2 -1 -14 -6 -27 -10 -23 -7 -24 -6 -18
28 5 30 2 36 -15 40 -14 4 -19 11 -14 23 3 9 1 23 -5 30 -17 21 -2 17 21 -6z
m4173 -1186 c139 -53 482 -183 762 -289 785 -297 1569 -597 1577 -604 3 -3
-143 -121 -325 -261 -182 -140 -509 -393 -727 -561 -217 -168 -820 -633 -1340
-1034 -520 -401 -1062 -819 -1205 -930 -143 -111 -528 -408 -855 -660 -327
-252 -687 -531 -800 -620 -297 -233 -410 -318 -415 -313 -3 2 -32 166 -65 364
-82 485 -120 706 -126 727 -4 14 -18 17 -79 17 l-74 0 -12 43 c-6 23 -15 51
-20 62 -5 11 -10 37 -12 57 -1 21 -5 38 -9 38 -4 0 -3 14 2 31 5 18 7 35 5 40
-3 4 -1 10 5 14 6 4 8 11 4 16 -3 5 0 16 6 24 7 8 9 15 5 15 -4 0 -2 7 5 15
10 12 10 15 -3 15 -22 0 -15 30 12 52 19 15 20 18 6 18 -13 0 -15 3 -6 13 6 8
8 17 4 20 -3 4 -1 7 5 7 6 0 9 11 6 25 -3 19 2 28 25 39 27 14 28 18 21 57
l-8 42 77 -7 c98 -9 121 -15 121 -32 0 -8 10 -14 24 -14 14 0 36 -4 50 -10 28
-10 34 -2 14 19 -9 9 0 8 27 -3 59 -24 67 -40 60 -116 -9 -90 -39 -186 -75
-243 -35 -56 -34 -72 16 -165 19 -34 34 -65 34 -67 0 -3 -11 -5 -24 -5 -22 0
-24 -3 -19 -32 2 -18 33 -194 66 -390 l62 -357 186 142 c102 78 203 156 225
172 21 17 257 199 524 404 267 206 679 524 915 706 237 182 808 623 1270 980
462 357 1027 793 1255 969 696 536 801 618 798 621 -4 4 -119 48 -748 285
-289 109 -667 253 -840 319 -173 67 -364 141 -425 164 l-110 42 -57 110 c-56
108 -63 125 -53 125 3 0 119 -43 258 -96z m2466 -361 l60 -108 -121 -3 c-66
-1 -122 -1 -125 1 -3 4 118 216 124 217 1 0 29 -48 62 -107z m-2078 -216 c-12
-12 -81 -18 -81 -7 0 5 8 7 18 5 10 -2 24 0 31 4 17 11 44 10 32 -2z m-165
-16 c-3 -5 -17 -11 -32 -14 -29 -5 -20 9 11 16 11 3 21 5 23 6 2 0 1 -3 -2 -8z
m-5811 -192 l84 -154 -176 -3 c-97 -1 -178 -1 -180 1 -2 3 38 75 88 161 50 86
93 155 96 153 2 -2 41 -73 88 -158z m7375 -2745 c0 -3 -41 -75 -92 -160 -78
-132 -93 -151 -103 -136 -6 9 -31 53 -55 97 -23 44 -58 108 -77 143 l-35 62
181 0 c100 0 181 -3 181 -6z m-4890 -115 c0 -8 -32 -29 -44 -29 -12 0 -6 38 7
43 15 5 37 -3 37 -14z m277 -36 c-24 -72 -28 -170 -7 -183 12 -8 12 -10 -3
-16 -9 -3 -17 -14 -17 -23 -1 -29 -44 -68 -112 -100 -37 -17 -76 -43 -86 -56
l-20 -25 1 27 c3 82 -2 103 -26 103 -18 0 -22 5 -21 28 0 15 -4 37 -9 50 -8
18 -8 26 4 33 10 6 11 9 1 9 -7 0 -11 4 -8 9 8 12 -55 37 -101 40 -7 1 -13 8
-13 16 0 19 4 19 38 1 15 -8 49 -17 75 -19 41 -5 47 -4 36 9 -12 14 -7 18 22
15 8 -1 21 10 27 24 8 17 20 25 36 25 14 0 37 5 53 12 15 6 31 10 36 10 12 -3
82 35 96 52 8 9 14 16 16 16 1 0 -7 -26 -18 -57z m4009 -595 l24 -48 -100 0
-101 0 12 23 c6 12 30 53 51 91 l40 68 25 -43 c14 -24 36 -65 49 -91z"/>
</g>
</svg>
